<svg width="438" height="359" viewBox="0 0 438 359" fill="none" xmlns="http://www.w3.org/2000/svg">
<g id="mention_isometric 2">
<g id="mention_isometric">
<path id="Path" d="M195.018 355.203L-24.6873 225.211C-31.682 221.273 -37.6775 214.822 -30.8621 210.589L189.625 83.3669C192.93 81.3148 197.952 79.968 201.321 81.9304L431.916 215.937C438.91 220.003 440.166 231.329 433.197 235.433L223.971 354.998C215.035 360.187 204.026 360.265 195.018 355.203Z" fill="#5B36A0"/>
<path id="Path Copy" d="M195.018 349.203L-24.6873 219.211C-31.682 215.273 -37.6775 208.822 -30.8621 204.589L189.625 77.3669C192.93 75.3148 197.952 73.968 201.321 75.9304L431.916 209.937C438.91 214.003 440.166 225.329 433.197 229.433L223.971 348.998C215.035 354.187 204.026 354.265 195.018 349.203Z" fill="#6862E6"/>
<g id="Path_2" style="mix-blend-mode:multiply" opacity="0.25">
<path d="M213.133 177.693L169.781 202.46C169.781 202.46 236.564 243.26 250.22 249.006L275.188 213.093" fill="url(#paint0_linear_0_223)"/>
</g>
<g id="Path_3" style="mix-blend-mode:multiply" opacity="0.25">
<path d="M198.157 296.513L154.792 271.798L111.428 296.565C111.428 296.565 134.013 310.366 155.599 323.038C169.307 313.328 183.027 303.517 198.157 296.513Z" fill="url(#paint1_linear_0_223)"/>
</g>
<g id="Path_4" style="mix-blend-mode:multiply" opacity="0.46">
<path d="M104.728 143.883L77.2227 159.595C77.2227 159.595 79.5543 173.999 93.2106 179.745L129.222 156.658" fill="url(#paint2_linear_0_223)"/>
</g>
<ellipse id="Oval" cx="118.192" cy="147.898" rx="16.59" ry="11.6974" fill="#68E1FD"/>
<ellipse id="Oval_2" cx="118.179" cy="140.997" rx="12.4265" ry="5.09196" fill="#974C26"/>
<path id="Shape" fill-rule="evenodd" clip-rule="evenodd" d="M117.474 125.619C117.654 127.915 117.73 130.21 117.73 132.506C117.718 135.379 117.577 138.252 117.269 141.113C116.283 139.74 115.309 138.304 114.284 136.688C112.965 134.623 111.735 132.506 110.608 130.339C109.56 128.411 108.664 126.404 107.93 124.336C107.114 122.09 106.459 119.788 105.97 117.448C105.842 116.884 105.727 116.217 105.624 115.602V115.383V114.845C105.522 113.639 105.419 112.357 105.419 111.074C105.362 106.712 106.204 102.385 107.892 98.3633C112.377 104.876 115.401 112.284 116.757 120.078C116.842 120.54 116.923 121.006 117 121.476C117 121.386 117.18 122.322 117.18 122.669L117.308 123.836C117.368 124.426 117.423 125.02 117.474 125.619ZM111.21 106.687C111.21 106.687 111.21 106.687 111.21 106.687H111.197C111.201 106.687 111.206 106.687 111.21 106.687ZM111.21 106.687C111.525 106.669 111.841 106.704 112.145 106.79C111.838 106.448 111.526 106.114 111.21 105.79C111.275 106.085 111.276 106.391 111.21 106.687Z" fill="#999A1C"/>
<path id="Shape_2" fill-rule="evenodd" clip-rule="evenodd" d="M125.494 128.338C124.405 130.428 123.278 132.34 121.996 134.276C120.446 136.7 118.73 139.035 117.026 141.305C116.911 139.625 116.911 137.88 116.911 135.969C116.911 133.52 117.013 131.083 117.244 128.646C117.402 126.456 117.732 124.281 118.23 122.143C118.753 119.809 119.443 117.516 120.293 115.281C120.523 114.691 120.767 114.114 121.01 113.537L121.01 113.537L121.074 113.331L121.33 112.857C121.907 111.741 122.522 110.638 123.188 109.573C125.502 105.868 128.554 102.68 132.155 100.21C132.416 108.124 130.96 116 127.889 123.297C127.71 123.716 127.526 124.144 127.339 124.58L126.839 125.683L126.314 126.747C126.049 127.278 125.776 127.808 125.494 128.338ZM130.887 108.239C130.801 108.529 130.652 108.796 130.452 109.022C130.702 109.154 130.93 109.322 131.131 109.522C131.062 109.112 130.981 108.684 130.887 108.239Z" fill="#999A1C"/>
<path id="Shape_3" fill-rule="evenodd" clip-rule="evenodd" d="M125.75 137.919C124.478 138.663 123.196 139.355 121.907 139.997C120.293 140.805 118.64 141.523 116.987 142.216C117.474 141.279 118.025 140.317 118.64 139.291C119.447 138.009 120.293 136.726 121.202 135.443C121.993 134.312 122.871 133.244 123.828 132.25C124.865 131.158 125.978 130.142 127.159 129.21L128.107 128.505L128.21 128.415L128.504 128.235C129.183 127.825 129.862 127.427 130.567 127.068C133.004 125.814 135.673 125.076 138.407 124.9C135.997 129.25 132.676 133.026 128.671 135.969L127.954 136.495L127.339 136.931L126.711 137.329L125.75 137.919ZM135.102 128.812C134.963 128.941 134.796 129.038 134.615 129.095V129.107C134.701 129.268 134.761 129.441 134.794 129.62C134.906 129.355 135.008 129.086 135.102 128.812Z" fill="#999A1C"/>
<path id="Shape_4" fill-rule="evenodd" clip-rule="evenodd" d="M117.474 125.619C117.654 127.915 117.73 130.21 117.73 132.506C117.718 135.379 117.577 138.252 117.269 141.113C116.283 139.74 115.309 138.304 114.284 136.688C112.965 134.623 111.735 132.506 110.608 130.339C109.56 128.411 108.664 126.404 107.93 124.336C107.114 122.09 106.459 119.788 105.97 117.448C105.842 116.884 105.727 116.217 105.624 115.602V115.383V114.845C105.522 113.639 105.419 112.357 105.419 111.074C105.362 106.712 106.204 102.385 107.892 98.3633C112.377 104.876 115.401 112.284 116.757 120.078C116.842 120.54 116.923 121.006 117 121.476C117 121.386 117.18 122.322 117.18 122.669L117.308 123.836C117.368 124.426 117.423 125.02 117.474 125.619ZM111.21 106.687C111.21 106.687 111.21 106.687 111.21 106.687H111.197C111.201 106.687 111.206 106.687 111.21 106.687ZM111.21 106.687C111.525 106.669 111.841 106.704 112.145 106.79C111.838 106.448 111.526 106.114 111.21 105.79C111.275 106.085 111.276 106.391 111.21 106.687Z" fill="#999A1C"/>
<path id="Shape_5" fill-rule="evenodd" clip-rule="evenodd" d="M125.494 128.338C124.405 130.428 123.278 132.34 121.996 134.276C120.446 136.7 118.73 139.035 117.026 141.305C116.911 139.625 116.911 137.88 116.911 135.969C116.911 133.52 117.013 131.083 117.244 128.646C117.402 126.456 117.732 124.281 118.23 122.143C118.753 119.809 119.443 117.516 120.293 115.281C120.523 114.691 120.767 114.114 121.01 113.537L121.01 113.537L121.074 113.331L121.33 112.857C121.907 111.741 122.522 110.638 123.188 109.573C125.502 105.868 128.554 102.68 132.155 100.21C132.416 108.124 130.96 116 127.889 123.297C127.71 123.716 127.526 124.144 127.339 124.58L126.839 125.683L126.314 126.747C126.049 127.278 125.776 127.808 125.494 128.338ZM130.887 108.239C130.801 108.529 130.652 108.796 130.452 109.022C130.702 109.154 130.93 109.322 131.131 109.522C131.062 109.112 130.981 108.684 130.887 108.239Z" fill="#999A1C"/>
<path id="Shape_6" fill-rule="evenodd" clip-rule="evenodd" d="M125.75 137.919C124.478 138.663 123.196 139.355 121.907 139.997C120.293 140.805 118.64 141.523 116.987 142.216C117.474 141.279 118.025 140.317 118.64 139.291C119.447 138.009 120.293 136.726 121.202 135.443C121.993 134.312 122.871 133.244 123.828 132.25C124.865 131.158 125.978 130.142 127.159 129.21L128.107 128.505L128.21 128.415L128.504 128.235C129.183 127.825 129.862 127.427 130.567 127.068C133.004 125.814 135.673 125.076 138.407 124.9C135.997 129.25 132.676 133.026 128.671 135.969L127.954 136.495L127.339 136.931L126.711 137.329L125.75 137.919ZM135.102 128.812C134.963 128.941 134.796 129.038 134.615 129.095V129.107C134.701 129.268 134.761 129.441 134.794 129.62C134.906 129.355 135.008 129.086 135.102 128.812Z" fill="#999A1C"/>
<path id="Path_5" d="M230.35 168.022L206.356 179.565C204.513 180.452 203.311 182.285 203.231 184.33C203.15 186.375 204.205 188.297 205.971 189.326L262.839 222.545C265.392 224.04 268.669 223.254 270.269 220.763L284.092 199.24" fill="#A1482D"/>
<path id="Path_6" d="M360.854 112.344L169.525 1.96239C166.853 0.424366 163.566 0.428254 160.898 1.97259C158.23 3.51693 156.587 6.36762 156.586 9.45283V124.285C156.586 126.851 157.953 129.222 160.173 130.505L364.146 248.39C365.578 249.221 367.345 249.222 368.778 248.393C370.211 247.565 371.093 246.032 371.09 244.375V130.018C371.084 122.717 367.18 115.976 360.854 112.344Z" fill="#F47B56"/>
<path id="Path_7" d="M169.537 10.6457L355.089 117.525C359.122 119.85 361.608 124.154 361.61 128.812V214.888C361.607 216.564 360.714 218.112 359.265 218.953C357.816 219.793 356.031 219.798 354.577 218.967L165.348 110.304C163.907 109.477 163.017 107.941 163.017 106.277V14.4294C163.017 12.8741 163.844 11.4365 165.188 10.6567C166.532 9.87678 168.189 9.87258 169.537 10.6457Z" fill="white"/>
<ellipse id="Oval_3" cx="246.738" cy="168.465" rx="4.03558" ry="4.61719" transform="rotate(-10.9 246.738 168.465)" fill="#AB643C"/>
<path id="Path_8" opacity="0.32" d="M219.41 127.427L305.639 179.296L348.235 154.503L272.126 110.15" fill="url(#paint3_linear_0_223)"/>
<path id="Path_9" d="M325.97 117.102L232.746 60.1928C231.73 59.6044 230.474 59.6147 229.468 60.2199C228.461 60.8251 227.862 61.9296 227.903 63.1043V95.5287C227.896 96.7218 228.513 97.8317 229.53 98.453L322.742 154.157C323.739 154.724 324.962 154.717 325.952 154.138C326.942 153.559 327.549 152.496 327.546 151.348L328.033 121.117C328.106 119.507 327.321 117.979 325.97 117.102Z" fill="#E2AC00"/>
<path id="Path_10" d="M303.667 133.789C307.01 138.47 312.89 139.779 316.785 136.726C320.679 133.673 321.128 127.402 317.784 122.733C314.44 118.064 308.56 116.743 304.666 119.796C300.771 122.848 300.323 129.107 303.667 133.789Z" fill="white"/>
<path id="Path_11" d="M294.52 111.318L256.497 88.3974C255.82 88.0802 255.014 88.3307 254.635 88.9757C254.257 89.6207 254.431 90.4482 255.037 90.8857L293.059 113.806C293.736 114.123 294.543 113.873 294.921 113.228C295.3 112.583 295.126 111.755 294.52 111.318Z" fill="#F2F2F2"/>
<path id="Path_12" d="M292.957 120.629L240.548 89.0387C239.885 88.8068 239.152 89.0842 238.808 89.6969C238.464 90.3096 238.609 91.081 239.151 91.527L291.496 123.13C292.173 123.448 292.98 123.197 293.358 122.552C293.737 121.907 293.563 121.08 292.957 120.642V120.629Z" fill="#F2F2F2"/>
<path id="Path_13" d="M307.369 123.387L214.196 66.4904C213.18 65.902 211.924 65.9123 210.918 66.5175C209.911 67.1227 209.312 68.2272 209.353 69.4019V101.813C209.338 103.009 209.951 104.124 210.968 104.751L304.179 160.454C305.187 161.034 306.429 161.025 307.427 160.429C308.426 159.833 309.025 158.745 308.996 157.581L309.483 127.35C309.526 125.748 308.723 124.242 307.369 123.387Z" fill="#F47B56"/>
<path id="Path_14" d="M285.065 140.074C288.409 144.755 294.289 146.063 298.184 143.011C302.078 139.958 302.526 133.686 299.183 129.018C295.839 124.349 289.959 123.028 286.065 126.08C282.17 129.133 281.722 135.392 285.065 140.074Z" fill="white"/>
<path id="Path_15" d="M275.918 117.602L237.87 94.6822C237.194 94.3649 236.387 94.6155 236.008 95.2605C235.63 95.9055 235.804 96.7329 236.41 97.1704L274.432 120.091C275.109 120.408 275.916 120.157 276.294 119.512C276.673 118.867 276.499 118.04 275.893 117.602H275.918Z" fill="#F2F2F2"/>
<path id="Path_16" d="M274.343 126.978L221.946 95.3363C221.27 95.0191 220.463 95.2696 220.084 95.9146C219.706 96.5596 219.88 97.3871 220.486 97.8246L272.895 129.415C273.572 129.732 274.378 129.482 274.757 128.837C275.136 128.192 274.962 127.364 274.355 126.927L274.343 126.978Z" fill="#F2F2F2"/>
<path id="Path_17" d="M283.989 127.209L190.791 70.3126C189.774 69.7241 188.519 69.7345 187.512 70.3397C186.506 70.9448 185.907 72.0494 185.948 73.2241V105.636C185.94 106.829 186.558 107.939 187.575 108.56L280.786 164.264C281.794 164.844 283.036 164.834 284.035 164.238C285.033 163.643 285.633 162.554 285.603 161.391L286.09 131.16C286.132 129.565 285.334 128.065 283.989 127.209Z" fill="#68E1FD"/>
<path id="Path_18" d="M283.989 127.209L190.791 70.3126C189.774 69.7241 188.519 69.7345 187.512 70.3397C186.506 70.9448 185.907 72.0494 185.948 73.2241V105.636C185.94 106.829 186.558 107.939 187.575 108.56L280.786 164.264C281.794 164.844 283.036 164.834 284.035 164.238C285.033 163.643 285.633 162.554 285.603 161.391L286.09 131.16C286.132 129.565 285.334 128.065 283.989 127.209Z" fill="#68E1FD"/>
<path id="Path_19" d="M261.673 143.896C265.016 148.577 270.897 149.886 274.791 146.833C278.686 143.78 279.134 137.508 275.79 132.84C272.447 128.171 266.566 126.85 262.672 129.903C258.777 132.955 258.368 139.214 261.673 143.896Z" fill="white"/>
<path id="Path_20" d="M252.526 121.425L214.491 98.5043C213.814 98.1871 213.007 98.4377 212.629 99.0827C212.25 99.7276 212.424 100.555 213.03 100.993L251.053 123.913C251.729 124.23 252.536 123.979 252.915 123.335C253.293 122.69 253.119 121.862 252.513 121.425H252.526Z" fill="#F2F2F2"/>
<path id="Path_21" d="M250.95 130.749L198.541 99.1585C197.864 98.8413 197.058 99.0918 196.679 99.7368C196.301 100.382 196.475 101.209 197.081 101.647L249.49 133.237C250.166 133.555 250.973 133.304 251.352 132.659C251.73 132.014 251.556 131.187 250.95 130.749Z" fill="#F2F2F2"/>
<path id="Path_22" d="M161.672 124.028C155.649 129.218 151.094 135.901 148.464 143.408C143.826 156.235 155.42 177.192 155.42 177.192L173.458 162.891" fill="#FF8F6F"/>
<path id="Path_23" d="M159.724 293.602L154.831 290.896L156.112 283.893C156.112 283.893 163.401 284.585 164.042 287.176" fill="#003B94"/>
<path id="Path_24" d="M161.518 293.499C162.62 292.82 163.773 292.217 164.913 291.614C167.744 290.062 171.831 288.459 173.573 285.547C174.304 284.342 174.212 282.809 173.342 281.699C170.78 278.595 165.169 283.7 162.299 280.263C161.736 279.583 161.467 268.796 161.467 268.796L150.552 271.746C150.552 271.746 148.707 293.422 148.912 294.756C149.117 296.09 152.871 297.321 152.871 297.321C153.988 297.084 155.055 296.649 156.022 296.039C157.162 295.205 156.124 285.034 157.585 286.458C159.045 287.881 159.686 293.448 159.686 293.448C160.292 293.54 160.907 293.557 161.518 293.499Z" fill="#F47B56"/>
<path id="Path_25" d="M180.568 304.081L175.674 301.413L176.955 294.41C176.955 294.41 184.244 295.103 184.885 297.694" fill="#003B94"/>
<path id="Path_26" d="M182.412 303.978C183.514 303.298 184.667 302.696 185.807 302.093C188.638 300.541 192.725 298.938 194.467 296.026C195.198 294.821 195.106 293.288 194.237 292.178C191.674 289.074 186.063 294.179 183.194 290.742C182.63 290.062 182.361 279.275 182.361 279.275L171.446 282.225C171.446 282.225 169.589 303.978 169.794 305.261C169.999 306.543 173.752 307.826 173.752 307.826C174.87 307.588 175.937 307.154 176.904 306.543C178.044 305.71 177.006 295.539 178.467 296.962C179.927 298.386 180.568 303.953 180.568 303.953C181.179 304.037 181.799 304.046 182.412 303.978Z" fill="#F47B56"/>
<path id="Path_27" d="M145.005 233.614L141.789 276.672C141.789 276.672 146.914 283.752 164.093 279.814L164.259 250.788" fill="#3E2928"/>
<path id="Path_28" d="M164.849 242.144C164.477 245.85 164.849 286.74 164.849 286.74C164.849 286.74 169.601 295.641 190.291 286.74L189.996 251.994" fill="#3E2928"/>
<path id="Path_29" d="M143.403 247.838C144.813 248.813 145.299 243.798 146.773 244.658C152.132 247.775 157.821 250.287 163.734 252.148H163.862C164.147 252.01 164.475 251.993 164.773 252.102C165.07 252.21 165.31 252.436 165.438 252.725C169.091 253.816 172.809 254.673 176.571 255.29C181.4 256.06 185.397 252.482 190.355 252.238C190.355 233.23 190.445 179.129 182.361 167.586L158.443 159.531C158.328 161.506 146.837 174.845 147.118 191.109C147.439 209.437 145.056 226.727 144.646 232.46C144.582 233.435 143.455 246.8 143.403 247.838Z" fill="#3E2928"/>
<path id="Path_30" d="M184.564 145.73L182.361 167.534C182.361 167.534 164.516 168.253 156.829 162.943V144.447" fill="#FF8F6F"/>
<path id="Path_31" d="M207.252 131.378L205.433 133.866C206.403 131.842 207.259 129.765 207.995 127.645C208.508 126.196 206.189 125.619 205.677 127.068L205.408 127.812C205.63 127.042 205.839 126.269 206.035 125.49C206.195 124.849 205.805 124.2 205.164 124.041C204.524 123.882 203.876 124.272 203.717 124.913C203.214 126.926 202.611 128.912 201.91 130.865C202.302 129.131 202.584 127.375 202.756 125.606C202.91 124.08 200.514 124.144 200.373 125.606C200.174 127.619 199.814 129.614 199.297 131.57C199.297 130.886 199.233 130.202 199.105 129.518C199.069 129.173 198.887 128.86 198.605 128.658C198.541 128.389 198.464 128.133 198.375 127.863C198.187 127.309 197.629 126.97 197.052 127.058C196.474 127.147 196.044 127.638 196.03 128.222L195.876 137.201C195.443 138.132 194.877 138.996 194.198 139.766C195.351 140.564 196.463 141.42 197.529 142.331C198.48 143.136 199.387 143.993 200.245 144.896C201.014 143.939 201.752 142.964 202.461 141.972C202.549 141.897 202.627 141.811 202.692 141.715C204.827 138.552 207.03 135.439 209.302 132.378C210.25 131.326 208.162 130.159 207.252 131.378Z" fill="#FFB5A9"/>
<path id="Path_32" d="M173.24 125.85C173.24 125.85 181.669 128.12 185.09 133.545C187.232 137.3 189.119 141.195 190.739 145.204L196.965 135.52C196.965 135.52 204.524 137.842 207.521 141.562C207.521 141.562 198.554 161.185 190.739 162.866C182.925 164.546 174.623 151.348 174.623 151.348C174.623 151.348 172.907 156.863 173.24 150.976" fill="#FF8F6F"/>
<path id="Path_33" d="M178.595 146.82C176.144 144.824 174.295 142.187 173.253 139.202C172.24 135.751 173.509 132.724 174.687 129.518C175.963 126.339 176.708 122.972 176.891 119.552C176.993 116.192 176.609 112.831 176.378 109.483C176.345 109.34 176.345 109.191 176.378 109.047C175.251 105.264 172.945 102.057 168.397 101.672C156.624 100.672 155.958 113.729 156.048 119.039C156.137 124.349 156.701 127.94 152.794 130.159C148.886 132.378 146.068 138.201 149.796 142.908C153.524 147.615 150.18 145.897 147.695 150.078C145.21 154.259 145.85 159.48 150.949 161.365C156.048 163.25 179.748 159.71 181.925 157.517C182.698 156.634 183.098 155.484 183.04 154.311C182.508 151.359 180.93 148.699 178.595 146.82Z" fill="#007F68"/>
<path id="Shape_7" fill-rule="evenodd" clip-rule="evenodd" d="M193.506 48.8802C193.325 45.3837 192.171 42.0075 190.176 39.1324C188.4 36.2591 185.777 34.0092 182.668 32.6937C181.076 31.9826 179.277 31.8911 177.621 32.4372C176.041 32.9971 174.738 34.1457 173.983 35.6437C173.073 37.4293 172.666 39.4288 172.804 41.4283C172.915 43.8067 173.471 46.1431 174.444 48.3159C175.415 50.5909 176.758 52.6887 178.415 54.5237C179.814 56.1552 181.567 57.445 183.54 58.2946C184.234 58.572 184.962 58.7575 185.705 58.8461C186.27 58.922 186.843 58.922 187.408 58.8461C187.85 58.7848 188.281 58.664 188.69 58.4869C188.949 58.3846 189.202 58.2646 189.445 58.1278L189.702 57.9483L188.152 55.0624L187.639 55.3446C187.118 55.5853 186.546 55.6912 185.974 55.6524C185.095 55.6617 184.223 55.4915 183.412 55.1522C181.08 54.082 179.16 52.2811 177.941 50.0217C176.411 47.7343 175.525 45.0755 175.379 42.3261C175.133 40.1398 175.891 37.9598 177.442 36.4004C178.911 35.1008 181.023 34.8313 182.771 35.7206C185.124 36.6998 187.11 38.3961 188.446 40.5689C189.933 42.7045 190.79 45.2157 190.919 47.8156C191.013 50.4407 190.44 51.5096 189.202 51.0222C188.761 50.831 188.392 50.5027 188.152 50.0859C187.868 49.6544 187.708 49.1529 187.69 48.6365L187.434 41.4283L184.872 40.4278V41.5693L184.641 41.1589C184.378 40.7834 184.068 40.4429 183.719 40.1456C183.309 39.7737 182.836 39.4783 182.323 39.2735C181.286 38.7631 180.041 38.958 179.21 39.7609C178.265 40.8045 177.828 42.2129 178.018 43.6087C178.072 45.3326 178.585 47.0108 179.504 48.4698C180.267 49.8125 181.445 50.8704 182.861 51.4839C183.454 51.7529 184.116 51.8335 184.757 51.7148C185.14 51.6585 185.502 51.5038 185.807 51.2659C185.927 51.134 186.031 50.9875 186.115 50.8298L186.422 51.4326C186.718 51.951 187.089 52.4222 187.524 52.8306C188.008 53.3332 188.593 53.7267 189.24 53.985C190.301 54.5503 191.609 54.3232 192.418 53.4335C193.341 52.1074 193.73 50.4811 193.506 48.8802ZM185.051 46.3535C185.136 47.031 184.946 47.7142 184.526 48.2517C184.133 48.6423 183.533 48.7355 183.04 48.4826C182.354 48.1849 181.782 47.6717 181.413 47.0204C180.964 46.3036 180.712 45.4806 180.683 44.6348C180.593 43.9624 180.799 43.2843 181.246 42.775C181.678 42.3849 182.306 42.3031 182.822 42.5698C183.48 42.8561 184.025 43.3521 184.372 43.9806C184.797 44.7006 185.031 45.5175 185.051 46.3535Z" fill="#F47B56"/>
<path id="Shape_8" fill-rule="evenodd" clip-rule="evenodd" d="M344.764 187.761C344.586 184.264 343.432 180.887 341.433 178.013C339.721 175.108 337.152 172.805 334.079 171.421C332.482 170.715 330.68 170.623 329.019 171.164C327.44 171.732 326.138 172.884 325.381 174.383C324.471 176.164 324.063 178.16 324.202 180.155C324.312 182.534 324.869 184.87 325.842 187.043C326.813 189.322 328.155 191.424 329.813 193.263C331.214 194.89 332.966 196.176 334.938 197.022C335.628 197.303 336.351 197.492 337.09 197.586C337.66 197.661 338.237 197.661 338.807 197.586C339.246 197.517 339.676 197.397 340.088 197.227C340.348 197.124 340.6 197.004 340.844 196.868L341.1 196.688L339.55 193.802L339.037 194.084C338.515 194.32 337.944 194.426 337.372 194.392C336.492 194.392 335.622 194.217 334.81 193.879C332.482 192.861 330.542 191.121 329.275 188.915C327.743 186.629 326.857 183.97 326.713 181.22C326.441 179.029 327.182 176.833 328.725 175.256C330.198 173.964 332.308 173.7 334.054 174.589C336.4 175.568 338.38 177.259 339.716 179.424C341.202 181.565 342.059 184.08 342.189 186.684C342.266 189.313 341.74 190.378 340.459 189.89C340.018 189.699 339.65 189.371 339.409 188.954C339.129 188.52 338.97 188.02 338.948 187.505L338.691 180.296L336.129 179.309V180.45L335.886 180.04C335.622 179.661 335.312 179.316 334.963 179.014C334.554 178.641 334.081 178.346 333.567 178.142C332.534 177.633 331.294 177.828 330.467 178.629C329.515 179.669 329.078 181.08 329.275 182.477C329.329 184.207 329.847 185.89 330.774 187.351C331.535 188.698 332.713 189.761 334.131 190.378C334.72 190.647 335.379 190.723 336.014 190.596C336.398 190.542 336.76 190.387 337.064 190.147C337.182 190.013 337.285 189.867 337.372 189.711L337.679 190.313C337.978 190.83 338.349 191.301 338.781 191.712C339.268 192.211 339.852 192.604 340.498 192.866C341.559 193.426 342.864 193.2 343.675 192.314C344.598 190.988 344.987 189.362 344.764 187.761ZM336.321 185.234C336.402 185.914 336.208 186.597 335.783 187.133C335.387 187.519 334.788 187.607 334.297 187.351C333.61 187.048 333.039 186.531 332.67 185.876C332.221 185.163 331.969 184.345 331.94 183.503C331.851 182.828 332.061 182.148 332.517 181.643C332.951 181.257 333.578 181.181 334.092 181.451C334.748 181.736 335.289 182.233 335.63 182.862C336.061 183.58 336.299 184.397 336.321 185.234Z" fill="#F47B56"/>
<g id="Path_34" style="mix-blend-mode:multiply" opacity="0.25">
<path d="M86.139 232.704L42.7744 208.001L-0.577351 232.755C-0.577351 232.755 23.5454 247.838 45.1316 260.511C58.8392 250.814 71.0223 239.72 86.139 232.704Z" fill="url(#paint4_linear_0_223)"/>
</g>
</g>
</g>
<defs>
<linearGradient id="paint0_linear_0_223" x1="212.715" y1="185.543" x2="201.685" y2="218.24" gradientUnits="userSpaceOnUse">
<stop stop-color="#78B46A"/>
<stop offset="0.03" stop-color="#7F3500"/>
<stop offset="1" stop-color="white"/>
</linearGradient>
<linearGradient id="paint1_linear_0_223" x1="140.536" y1="252.477" x2="121.981" y2="310.838" gradientUnits="userSpaceOnUse">
<stop stop-color="#78B46A"/>
<stop offset="0.03" stop-color="#7F3500"/>
<stop offset="1" stop-color="white"/>
</linearGradient>
<linearGradient id="paint2_linear_0_223" x1="94.7001" y1="130.002" x2="77.5362" y2="169.625" gradientUnits="userSpaceOnUse">
<stop stop-color="#78B46A"/>
<stop offset="0.03" stop-color="#7F3500"/>
<stop offset="1" stop-color="white"/>
</linearGradient>
<linearGradient id="paint3_linear_0_223" x1="335.656" y1="165.452" x2="328.951" y2="148.459" gradientUnits="userSpaceOnUse">
<stop stop-color="white" stop-opacity="0.01"/>
<stop offset="0.99" stop-color="#DC841E"/>
</linearGradient>
<linearGradient id="paint4_linear_0_223" x1="29.555" y1="188.349" x2="10.0329" y2="246.801" gradientUnits="userSpaceOnUse">
<stop stop-color="#78B46A"/>
<stop offset="0.03" stop-color="#7F3500"/>
<stop offset="1" stop-color="white"/>
</linearGradient>
</defs>
</svg>
